<svg xmlns="http://www.w3.org/2000/svg" viewBox="0 -6 200 222" width="200" height="222" role="img"><title>foundation-3-stack</title><defs><linearGradient id="cg" x1="0" x2="1"><stop offset="0" stop-color="#0b0b0b"/><stop offset=".55" stop-color="#1c1c1c"/><stop offset="1" stop-color="#101010"/></linearGradient><linearGradient id="pg" x1="0" x2="1"><stop offset="0" stop-color="#2a2a2a"/><stop offset="1" stop-color="#0c0c0c"/></linearGradient></defs><ellipse cx="100" cy="178.0" rx="62" ry="17" fill="#000" opacity=".10"/><g opacity="1"><polygon points="27.3,153.6 100.0,195.6 100.0,204.0 27.3,162.0" fill="#101010"/><polygon points="172.7,153.6 100.0,195.6 100.0,204.0 172.7,162.0" fill="#1b1b1b"/><polygon points="100.0,111.6 172.7,153.6 100.0,195.6 27.3,153.6" fill="#262626"/><polyline points="27.3,153.6 100.0,195.6 172.7,153.6" fill="none" stroke="#C8FF3D" stroke-width="1" stroke-linejoin="round"/></g><g opacity="1"><polygon points="51.5,138.2 100.0,166.2 100.0,181.6 51.5,153.6" fill="#101010"/><polygon points="148.5,138.2 100.0,166.2 100.0,181.6 148.5,153.6" fill="#1b1b1b"/><polygon points="100.0,110.2 148.5,138.2 100.0,166.2 51.5,138.2" fill="#303030"/></g><line x1="57.6" y1="149.4" x2="68.5" y2="155.7" stroke="#C8FF3D" stroke-width="1.6" stroke-linecap="round" opacity="1"/><line x1="75.8" y1="159.9" x2="95.2" y2="171.1" stroke="#444" stroke-width="1.2" stroke-linecap="round" opacity="1"/><g opacity="1"><polygon points="51.5,120.0 100.0,148.0 100.0,163.4 51.5,135.4" fill="#101010"/><polygon points="148.5,120.0 100.0,148.0 100.0,163.4 148.5,135.4" fill="#1b1b1b"/><polygon points="100.0,92.0 148.5,120.0 100.0,148.0 51.5,120.0" fill="#303030"/></g><line x1="57.6" y1="131.2" x2="68.5" y2="137.5" stroke="#C8FF3D" stroke-width="1.6" stroke-linecap="round" opacity="1"/><line x1="75.8" y1="141.7" x2="95.2" y2="152.9" stroke="#444" stroke-width="1.2" stroke-linecap="round" opacity="1"/><g opacity="1"><polygon points="51.5,101.8 100.0,129.8 100.0,145.2 51.5,117.2" fill="#101010"/><polygon points="148.5,101.8 100.0,129.8 100.0,145.2 148.5,117.2" fill="#1b1b1b"/><polygon points="100.0,73.8 148.5,101.8 100.0,129.8 51.5,101.8" fill="#303030"/></g><line x1="57.6" y1="113.0" x2="68.5" y2="119.3" stroke="#C8FF3D" stroke-width="1.6" stroke-linecap="round" opacity="1"/><line x1="75.8" y1="123.5" x2="95.2" y2="134.7" stroke="#444" stroke-width="1.2" stroke-linecap="round" opacity="1"/></svg>
