<svg xmlns="http://www.w3.org/2000/svg" viewBox="0 -6 200 222" width="200" height="222" role="img"><title>local-2-bars</title><defs><linearGradient id="cg" x1="0" x2="1"><stop offset="0" stop-color="#0b0b0b"/><stop offset=".55" stop-color="#1c1c1c"/><stop offset="1" stop-color="#101010"/></linearGradient><linearGradient id="pg" x1="0" x2="1"><stop offset="0" stop-color="#2a2a2a"/><stop offset="1" stop-color="#0c0c0c"/></linearGradient></defs><ellipse cx="100" cy="178.0" rx="62" ry="17" fill="#000" opacity=".10"/><g opacity="1"><polygon points="27.3,155.0 100.0,197.0 100.0,204.0 27.3,162.0" fill="#101010"/><polygon points="172.7,155.0 100.0,197.0 100.0,204.0 172.7,162.0" fill="#1b1b1b"/><polygon points="100.0,113.0 172.7,155.0 100.0,197.0 27.3,155.0" fill="#262626"/><polyline points="27.3,155.0 100.0,197.0 172.7,155.0" fill="none" stroke="#C8FF3D" stroke-width="1" stroke-linejoin="round"/></g><g opacity="1"><polygon points="60.0,126.3 73.3,134.0 73.3,153.6 60.0,145.9" fill="#101010"/><polygon points="86.7,126.3 73.3,134.0 73.3,153.6 86.7,145.9" fill="#1b1b1b"/><polygon points="73.3,118.6 86.7,126.3 73.3,134.0 60.0,126.3" fill="#363636"/></g><g opacity="1"><polygon points="78.2,120.0 91.5,127.7 91.5,164.1 78.2,156.4" fill="#101010"/><polygon points="104.8,120.0 91.5,127.7 91.5,164.1 104.8,156.4" fill="#1b1b1b"/><polygon points="91.5,112.3 104.8,120.0 91.5,127.7 78.2,120.0" fill="#363636"/></g><g opacity="1"><polygon points="96.4,113.7 109.7,121.4 109.7,174.6 96.4,166.9" fill="#101010"/><polygon points="123.0,113.7 109.7,121.4 109.7,174.6 123.0,166.9" fill="#1b1b1b"/><polygon points="109.7,106.0 123.0,113.7 109.7,121.4 96.4,113.7" fill="#363636"/><polyline points="96.4,113.7 109.7,121.4 123.0,113.7" fill="none" stroke="#C8FF3D" stroke-width="0.8" stroke-linejoin="round"/></g><g transform="translate(109.7,111.6) scale(0.8)"><path d="M0,0 C-3,-8 -11,-14 -11,-24 A11,11 0 0 1 11,-24 C11,-14 3,-8 0,0Z" fill="url(#pg)"/><path d="M0,0 C3,-8 11,-14 11,-24 A11,11 0 0 0 0,-35 Z" fill="#000" opacity=".35"/><circle cx="0" cy="-24" r="4.6" fill="#C8FF3D"/></g></svg>
